# Max2Obj Version 4.0 Mar 10th, 2001
#
# object Box02 to come ...
#
v  -35.626446 -39.427219 -35.396446
v  35.373714 -35.557220 -39.266445
v  -39.496449 35.442940 -35.396442
v  35.373714 35.442940 -39.266445
v  -35.626446 -39.427227 35.603710
v  39.243710 -35.557228 35.603710
v  -39.496449 35.442932 35.603710
v  35.373714 39.312931 35.603710
v  -39.496449 -35.557220 -35.396446
v  -35.626446 -35.557220 -39.266445
v  39.243710 -35.557220 -35.396446
v  35.373714 -39.427219 -35.396446
v  -35.626446 39.312939 -35.396442
v  -35.626446 35.442940 -39.266445
v  35.373714 39.312939 -35.396442
v  39.243710 35.442940 -35.396442
v  -35.626446 -35.557228 39.473713
v  -39.496449 -35.557228 35.603710
v  35.373714 -35.557228 39.473713
v  35.373714 -39.427227 35.603710
v  -35.626446 35.442932 39.473713
v  -35.626446 39.312931 35.603710
v  35.373714 35.442932 39.473713
v  39.243710 35.442932 35.603710
# 24 vertices

vt  0.394774 0.039288 0.450851
vt  0.606645 0.938461 0.500000
vt  0.377945 0.709453 0.450851
vt  0.606788 0.725987 0.500000
vt  0.394633 0.251762 -0.450851
vt  0.835798 0.497294 -0.450851
vt  0.378092 0.496979 -0.450851
vt  0.606944 0.497135 -0.450851
vt  0.165471 0.709305 0.450851
vt  0.394171 0.938318 0.500000
vt  0.835650 0.709768 0.450851
vt  0.607248 0.039428 0.450851
vt  0.394325 0.709465 0.450851
vt  0.394314 0.725844 0.500000
vt  0.606799 0.709610 0.450851
vt  0.623176 0.709621 0.450851
vt  0.394622 0.268140 -0.500000
vt  0.165619 0.496831 -0.450851
vt  0.607097 0.268281 -0.500000
vt  0.607107 0.251902 -0.450851
vt  0.394481 0.480613 -0.500000
vt  0.394470 0.496991 -0.450851
vt  0.606955 0.480756 -0.500000
vt  0.623323 0.497147 -0.450851
vt  0.151281 0.717484 0.450851
vt  0.394160 0.954696 0.450851
vt  0.149092 0.709293 0.450851
vt  0.835639 0.726147 0.500000
vt  0.623165 0.726000 0.500000
vt  0.151440 0.488632 -0.450851
vt  0.149240 0.496819 -0.450851
vt  0.165459 0.725683 0.500000
vt  0.849829 0.717968 0.450851
vt  0.606634 0.954839 0.450851
vt  0.852029 0.709780 0.450851
vt  0.392123 0.717653 0.450851
vt  0.377933 0.725832 0.500000
vt  0.608986 0.717800 0.450851
vt  0.165630 0.480452 -0.500000
vt  0.835809 0.480916 -0.500000
vt  0.849987 0.489115 -0.450851
vt  0.852176 0.497306 -0.450851
vt  0.386292 0.482801 -0.500000
vt  0.378104 0.480601 -0.500000
vt  0.615144 0.482957 -0.500000
vt  0.623335 0.480768 -0.500000
# 46 texture vertices

vn  0.000000 -1.000000 -0.000000
vn  0.000000 0.000000 -1.000000
vn  -1.000000 0.000000 -0.000000
vn  0.000000 0.000000 -1.000000
vn  0.000000 -1.000000 -0.000000
vn  1.000000 0.000000 -0.000000
vn  -1.000000 0.000000 -0.000000
vn  0.000000 1.000000 0.000000
vn  -1.000000 0.000000 -0.000000
vn  0.000000 0.000000 -1.000000
vn  1.000000 0.000000 -0.000000
vn  0.000000 -1.000000 -0.000000
vn  0.000000 1.000000 0.000000
vn  0.000000 0.000000 -1.000000
vn  0.000000 1.000000 0.000000
vn  1.000000 0.000000 -0.000000
vn  0.000000 -0.000000 1.000000
vn  -1.000000 0.000000 -0.000000
vn  0.000000 -0.000000 1.000000
vn  0.000000 -1.000000 -0.000000
vn  0.000000 -0.000000 1.000000
vn  0.000000 1.000000 0.000000
vn  0.000000 -0.000000 1.000000
vn  1.000000 0.000000 -0.000000
# 24 vertex normals

g Box02
s 2
f 10/10/10 14/14/14 4/4/4
f 4/4/4 2/2/2 10/10/10
s 4
f 17/17/17 19/19/19 23/23/23
f 23/23/23 21/21/21 17/17/17
s 8
f 1/1/1 12/12/12 20/20/20
f 20/20/20 5/5/5 1/1/1
s 16
f 11/11/11 16/16/16 24/24/24
f 24/24/24 6/6/6 11/11/11
s 32
f 15/15/15 13/13/13 22/22/22
f 22/22/22 8/8/8 15/15/15
s 64
f 3/3/3 9/9/9 18/18/18
f 18/18/18 7/7/7 3/3/3
s 0
f 1/25/1 9/9/9 10/32/10
f 2/28/2 11/11/11 12/33/12
f 3/3/3 13/36/13 14/37/14
f 4/29/4 15/38/15 16/16/16
f 5/30/5 17/39/17 18/18/18
f 6/6/6 19/40/19 20/41/20
f 7/7/7 21/43/21 22/22/22
f 8/8/8 23/45/23 24/24/24
f 10/32/10 9/9/9 3/3/3
f 3/3/3 14/37/14 10/32/10
f 14/14/14 13/13/13 15/15/15
f 15/15/15 4/4/4 14/14/14
f 4/29/4 16/16/16 11/11/11
f 11/11/11 2/28/2 4/29/4
f 2/2/2 12/34/12 1/26/1
f 1/26/1 10/10/10 2/2/2
f 17/17/17 5/5/5 20/20/20
f 20/20/20 19/19/19 17/17/17
f 19/40/19 6/6/6 24/24/24
f 24/24/24 23/46/23 19/40/19
f 23/23/23 8/8/8 22/22/22
f 22/22/22 21/21/21 23/23/23
f 21/44/21 7/7/7 18/18/18
f 18/18/18 17/39/17 21/44/21
f 12/35/12 11/11/11 6/6/6
f 6/6/6 20/42/20 12/35/12
f 5/31/5 18/18/18 9/9/9
f 9/9/9 1/27/1 5/31/5
f 16/16/16 15/15/15 8/8/8
f 8/8/8 24/24/24 16/16/16
f 13/13/13 3/3/3 7/7/7
f 7/7/7 22/22/22 13/13/13
# 44 faces

g
