# Max2Obj Version 4.0 Mar 10th, 2001
#
# object objobjBox02 to come ...
#
v  -180.433380 15.174847 138.038589
v  181.412674 12.737854 140.231369
v  -180.433380 15.174847 -126.179863
v  182.840332 12.737850 -126.867935
v  -187.178253 -0.917675 136.792740
v  182.069000 -0.917675 143.447037
v  -182.029526 -0.917675 -131.588333
v  187.217728 -0.917675 -124.934006
v  -182.800873 12.737850 138.726624
v  -181.373230 12.737854 140.231369
v  182.840332 12.737850 138.726624
v  180.472839 15.174847 138.038589
v  -181.373230 12.737854 -128.372665
v  -182.800873 12.737850 -126.867905
v  181.412674 12.737854 -128.372681
v  180.472839 15.174847 -126.179863
v  -182.029526 -0.917675 143.447037
v  187.217728 -0.917675 136.792740
v  -187.178253 -0.917675 -124.934006
v  182.069000 -0.917675 -131.588333
v  180.472839 15.174848 132.982025
v  -180.433380 15.174847 132.982040
v  187.217728 -0.917675 132.982010
v  182.935715 12.440327 132.982025
v  182.840332 12.737850 132.982025
v  -187.178253 -0.917675 132.982010
v  -187.114990 -0.720310 132.982025
v  -182.800873 12.737850 132.982025
v  180.518036 15.128329 132.982010
v  -182.749542 12.790697 132.982040
v  -180.433380 15.174846 -119.691422
v  187.130676 -0.646151 -119.691422
v  182.840332 12.737850 -119.691422
v  -187.178253 -0.917675 -119.691422
v  182.776199 12.803870 -119.691422
v  180.472839 15.174847 -119.691414
v  187.217728 -0.917675 -119.691422
v  -182.920013 12.366166 -119.691437
v  -182.800873 12.737850 -119.691437
v  -180.491379 15.115156 -119.691429
v  -176.779404 15.174847 138.038589
v  -176.779388 15.174847 -126.179863
v  -176.779404 -0.917675 143.447037
v  -176.779419 12.565251 140.272018
v  -176.779419 12.737854 140.231369
v  -176.779419 -0.917675 -131.588333
v  -176.779404 -0.720413 -131.541885
v  -176.779404 12.737854 -128.372665
v  -176.779388 15.150237 138.060730
v  -176.779404 12.768793 -128.344818
v  -176.779388 15.174847 132.982040
v  -176.779404 15.174846 -119.691422
v  177.527985 15.174847 -126.179863
v  177.527969 -0.747056 143.406845
v  177.527985 12.737854 140.231369
v  177.527969 -0.917675 -131.588333
v  177.527985 12.764017 140.207825
v  177.527985 15.174848 132.982025
v  177.527969 15.174847 138.038589
v  177.527969 -0.917675 143.447037
v  177.527985 12.591895 -128.407043
v  177.527985 12.737854 -128.372681
v  177.527969 15.155013 -126.197716
v  177.527969 15.174847 -119.691414
# 64 vertices

vt  0.022431 0.289947 0.500000
vt  0.972607 0.291014 0.500000
vt  0.971359 0.983948 0.500000
vt  0.021183 0.982880 0.500000
vt  0.024254 0.295132 0.500008
vt  0.027145 0.258935 0.500008
vt  0.969999 0.255474 0.500008
vt  0.962964 0.290797 0.500008
vt  0.816104 0.256394 0.000000
vt  0.811353 0.293718 0.000000
vt  0.165072 0.294069 0.000000
vt  0.160273 0.256750 0.000000
vt  0.025289 0.294109 0.500046
vt  0.028180 0.257912 0.500046
vt  0.971035 0.254452 0.499969
vt  0.963999 0.289775 0.499969
vt  0.816213 0.255960 0.000000
vt  0.811462 0.293284 0.000000
vt  0.165181 0.293631 0.000000
vt  0.160382 0.256312 0.000000
vt  0.012201 0.287613 0.485787
vt  0.014781 0.283557 0.485787
vt  0.981298 0.286050 0.485787
vt  0.982654 0.290398 0.485787
vt  0.012492 0.987845 0.485787
vt  0.011136 0.983497 0.485787
vt  0.981589 0.986281 0.485787
vt  0.979009 0.990338 0.485787
vt  0.020102 0.281821 0.485787
vt  0.973373 0.283934 0.485787
vt  0.973688 0.992074 0.485787
vt  0.020417 0.989961 0.485787
vt  0.019216 0.294701 -0.499992
vt  0.010030 0.258234 -0.499992
vt  0.988416 0.267082 -0.499992
vt  0.962333 0.292254 -0.499992
vt  0.011066 0.257211 -0.499954
vt  0.020251 0.293678 -0.499954
vt  0.989451 0.266059 -0.500031
vt  0.963368 0.291232 -0.500031
vt  0.972583 0.304275 0.500000
vt  0.022407 0.303208 0.500000
vt  0.801943 0.293723 0.000000
vt  0.801919 0.257215 0.000000
vt  0.801919 0.256402 0.000000
vt  0.982631 0.305449 0.485787
vt  0.174591 0.293626 0.000000
vt  0.174590 0.293087 0.000000
vt  0.174567 0.256304 0.000000
vt  0.012178 0.302664 0.485787
vt  0.972778 0.304285 0.499729
vt  0.012396 0.302690 0.486095
vt  0.021214 0.965864 0.500000
vt  0.178017 0.293320 0.000000
vt  0.177994 0.256740 0.000000
vt  0.981618 0.967478 0.485787
vt  0.798516 0.293291 0.000000
vt  0.981346 0.967446 0.486172
vt  0.971390 0.966931 0.500000
vt  0.178018 0.294062 0.000000
vt  0.798493 0.256985 0.000000
vt  0.798492 0.255969 0.000000
vt  0.011165 0.964694 0.485787
vt  0.020963 0.965851 0.499652
vt  0.032051 0.289958 0.500000
vt  0.030803 0.982891 0.500000
vt  0.040740 0.258885 0.500008
vt  0.036208 0.294631 0.500008
vt  0.036140 0.295077 0.500008
vt  0.032173 0.281848 0.485787
vt  0.957439 0.254502 0.499970
vt  0.957373 0.255025 0.499970
vt  0.952112 0.289830 0.499970
vt  0.032488 0.989988 0.485787
vt  0.032034 0.289886 0.499856
vt  0.032490 0.989885 0.485967
vt  0.032027 0.303219 0.500000
vt  0.030834 0.965874 0.500000
vt  0.963606 0.983939 0.500000
vt  0.958182 0.255970 0.500008
vt  0.952912 0.290843 0.500008
vt  0.963165 0.283911 0.485787
vt  0.039939 0.257869 0.500045
vt  0.963164 0.283999 0.485940
vt  0.964830 0.304267 0.500000
vt  0.964854 0.291005 0.500000
vt  0.958240 0.255517 0.500008
vt  0.035398 0.293685 0.500045
vt  0.035341 0.294063 0.500045
vt  0.963480 0.992051 0.485787
vt  0.963620 0.983997 0.499884
vt  0.963637 0.966923 0.500000
# 92 texture vertices

vn  -0.318630 0.886248 0.336213
vn  0.358177 0.455162 0.815191
vn  -0.318630 0.886249 -0.336211
vn  0.813138 0.460103 -0.356528
vn  -0.924390 0.263332 0.275969
vn  0.412513 0.220730 0.883805
vn  -0.412515 0.220729 -0.883804
vn  0.924390 0.263334 -0.275967
vn  -0.813139 0.460103 0.356525
vn  -0.370229 0.444705 0.815578
vn  0.811065 0.473478 0.343501
vn  0.318630 0.886248 0.336214
vn  -0.358181 0.455164 -0.815189
vn  -0.811067 0.473478 -0.343497
vn  0.370226 0.444707 -0.815579
vn  0.318630 0.886250 -0.336210
vn  -0.415679 0.227354 0.880637
vn  0.926777 0.258492 0.272520
vn  -0.926777 0.258491 -0.272519
vn  0.415681 0.227354 -0.880636
vn  0.389331 0.921098 -0.000000
vn  -0.389355 0.921088 0.000000
vn  0.952270 0.305258 0.000000
vn  0.952266 0.305271 -0.000000
vn  0.857408 0.514637 -0.000000
vn  -0.952275 0.305241 -0.000000
vn  -0.952273 0.305249 -0.000000
vn  -0.857438 0.514587 -0.000000
vn  0.717242 0.696824 0.000000
vn  -0.717291 0.696773 0.000000
vn  -0.389310 0.921107 0.000000
vn  0.952264 0.305277 0.000001
vn  0.857424 0.514611 0.000000
vn  -0.952270 0.305258 -0.000000
vn  0.717273 0.696792 0.000000
vn  0.389355 0.921088 -0.000000
vn  0.952257 0.305296 -0.000000
vn  -0.952272 0.305251 0.000000
vn  -0.857419 0.514619 -0.000000
vn  -0.717227 0.696839 0.000000
vn  -0.000000 0.913463 0.406922
vn  0.000000 0.913477 -0.406890
vn  -0.000000 0.229215 0.973376
vn  0.000000 0.229226 0.973373
vn  0.000000 0.463549 0.886071
vn  0.000000 0.229195 -0.973381
vn  0.000000 0.229205 -0.973378
vn  -0.000000 0.463601 -0.886044
vn  0.000000 0.668854 0.743394
vn  -0.000000 0.668937 -0.743320
vn  -0.000000 1.000000 -0.000000
vn  -0.000000 1.000000 0.000000
vn  -0.000000 0.913515 -0.406806
vn  -0.000001 0.229251 0.973367
vn  0.000000 0.463567 0.886062
vn  0.000000 0.229215 -0.973376
vn  0.000000 0.668902 0.743351
vn  -0.000000 1.000000 0.000000
vn  -0.000000 0.913476 0.406892
vn  0.000000 0.229289 0.973359
vn  -0.000000 0.229189 -0.973382
vn  0.000000 0.463518 -0.886087
vn  -0.000000 0.668951 -0.743307
vn  -0.000000 1.000000 -0.000000
# 64 vertex normals

g objobjBox02
s 2
f 41/65/41 51/77/51 22/42/22
f 22/42/22 1/1/1 41/65/41
f 10/5/10 17/6/17 43/67/43
f 43/67/43 44/68/44 10/5/10
f 2/8/2 55/81/55 54/80/54
f 54/80/54 6/7/6 2/8/2
f 11/9/11 18/10/18 23/43/23
f 23/43/23 24/44/24 11/9/11
f 8/11/8 4/12/4 33/55/33
f 33/55/33 32/54/32 8/11/8
f 20/14/20 56/83/56 61/88/61
f 61/88/61 15/13/15 20/14/20
f 47/72/47 7/15/7 13/16/13
f 13/16/13 48/73/48 47/72/47
f 19/18/19 34/57/34 38/61/38
f 38/61/38 14/17/14 19/18/19
f 27/48/27 5/19/5 9/20/9
f 9/20/9 28/49/28 27/48/27
f 1/1/1 9/21/9 10/22/10
f 2/23/2 11/24/11 12/2/12
f 3/4/3 13/25/13 14/26/14
f 4/27/4 15/28/15 16/3/16
f 45/70/45 49/75/49 1/1/1
f 1/1/1 10/29/10 45/70/45
f 12/2/12 59/86/59 57/84/57
f 57/84/57 2/30/2 12/2/12
f 25/46/25 29/51/29 12/2/12
f 12/2/12 11/24/11 25/46/25
f 16/3/16 36/59/36 35/58/35
f 35/58/35 4/27/4 16/3/16
f 16/3/16 15/31/15 62/90/62
f 62/90/62 63/91/63 16/3/16
f 42/66/42 50/76/50 13/32/13
f 13/32/13 3/4/3 42/66/42
f 3/4/3 14/26/14 39/63/39
f 39/63/39 40/64/40 3/4/3
f 22/42/22 30/52/30 9/21/9
f 9/21/9 1/1/1 22/42/22
f 10/5/10 9/33/9 5/34/5
f 5/34/5 17/6/17 10/5/10
f 6/7/6 18/35/18 11/36/11
f 11/36/11 2/8/2 6/7/6
f 8/37/8 20/14/20 15/13/15
f 15/13/15 4/38/4 8/37/8
f 7/15/7 19/39/19 14/40/14
f 14/40/14 13/16/13 7/15/7
f 36/59/36 64/92/64 58/85/58
f 58/85/58 21/41/21 36/59/36
f 23/43/23 37/60/37 32/54/32
f 32/54/32 24/44/24 23/43/23
f 25/45/25 11/9/11 24/44/24
f 26/47/26 5/19/5 27/48/27
f 38/61/38 27/48/27 28/49/28
f 28/49/28 39/62/39 38/61/38
f 33/56/33 35/58/35 29/51/29
f 29/51/29 25/46/25 33/56/33
f 21/41/21 12/2/12 29/51/29
f 28/50/28 9/21/9 30/52/30
f 31/53/31 40/64/40 30/52/30
f 30/52/30 22/42/22 31/53/31
f 25/45/25 24/44/24 32/54/32
f 32/54/32 33/55/33 25/45/25
f 26/47/26 27/48/27 38/61/38
f 38/61/38 34/57/34 26/47/26
f 21/41/21 29/51/29 35/58/35
f 35/58/35 36/59/36 21/41/21
f 28/50/28 30/52/30 40/64/40
f 40/64/40 39/63/39 28/50/28
f 16/3/16 53/79/53 64/92/64
f 64/92/64 36/59/36 16/3/16
f 37/60/37 8/11/8 32/54/32
f 39/62/39 14/17/14 38/61/38
f 33/56/33 4/27/4 35/58/35
f 31/53/31 3/4/3 40/64/40
f 59/86/59 58/85/58 51/77/51
f 51/77/51 41/65/41 59/86/59
f 43/67/43 60/87/60 54/80/54
f 54/80/54 44/68/44 43/67/43
f 45/69/45 10/5/10 44/68/44
f 46/71/46 7/15/7 47/72/47
f 61/88/61 47/72/47 48/73/48
f 48/73/48 62/89/62 61/88/61
f 55/82/55 57/84/57 49/75/49
f 49/75/49 45/70/45 55/82/55
f 41/65/41 1/1/1 49/75/49
f 48/74/48 13/32/13 50/76/50
f 53/79/53 63/91/63 50/76/50
f 50/76/50 42/66/42 53/79/53
f 31/53/31 22/42/22 51/77/51
f 51/77/51 52/78/52 31/53/31
f 3/4/3 31/53/31 52/78/52
f 52/78/52 42/66/42 3/4/3
f 45/69/45 44/68/44 54/80/54
f 54/80/54 55/81/55 45/69/45
f 46/71/46 47/72/47 61/88/61
f 61/88/61 56/83/56 46/71/46
f 41/65/41 49/75/49 57/84/57
f 57/84/57 59/86/59 41/65/41
f 48/74/48 50/76/50 63/91/63
f 63/91/63 62/90/62 48/74/48
f 52/78/52 51/77/51 58/85/58
f 58/85/58 64/92/64 52/78/52
f 42/66/42 52/78/52 64/92/64
f 64/92/64 53/79/53 42/66/42
f 12/2/12 21/41/21 58/85/58
f 58/85/58 59/86/59 12/2/12
f 60/87/60 6/7/6 54/80/54
f 62/89/62 15/13/15 61/88/61
f 55/82/55 2/30/2 57/84/57
f 53/79/53 16/3/16 63/91/63
# 110 faces

g
