# Blender v2.55 (sub 0) OBJ File: 'untitled.blend'
# www.blender.org
mtllib coin.mtl
o Mesh_Cylinder01
v 26.913425 8.036072 -0.000000
v 23.308357 8.036073 13.454296
v 23.308357 -8.053313 13.454296
v 26.913425 -8.053314 0.000000
v 13.459127 8.036073 23.303524
v 13.459127 -8.053313 23.303524
v 0.004831 8.036073 26.908592
v 0.004831 -8.053313 26.908592
v -13.449465 8.036073 23.303524
v -13.449465 -8.053313 23.303524
v -23.298691 8.036073 13.454297
v -23.298691 -8.053313 13.454297
v -26.903759 8.036072 0.000004
v -26.903759 -8.053314 0.000004
v -23.298695 8.036071 -13.454290
v -23.298695 -8.053315 -13.454290
v -13.449472 8.036071 -23.303520
v -13.449472 -8.053315 -23.303520
v 0.004820 8.036071 -26.908592
v 0.004820 -8.053315 -26.908592
v 13.459115 8.036071 -23.303532
v 13.459115 -8.053315 -23.303532
v 23.308348 8.036071 -13.454311
v 23.308348 -8.053315 -13.454311
v 0.006431 8.036072 -0.001600
v 23.308348 8.036071 -13.454311
v 13.459115 8.036071 -23.303532
v 0.004820 8.036071 -26.908592
v -13.449472 8.036071 -23.303520
v -23.298695 8.036071 -13.454290
v -26.903759 8.036072 0.000004
v -23.298691 8.036073 13.454297
v -13.449465 8.036073 23.303524
v 0.004831 8.036073 26.908592
v 13.459127 8.036073 23.303524
v 23.308357 8.036073 13.454296
v 26.913425 8.036072 -0.000000
v 0.006431 -8.053314 -0.001599
v 23.308348 -8.053315 -13.454311
v 13.459115 -8.053315 -23.303532
v 0.004820 -8.053315 -26.908592
v -13.449472 -8.053315 -23.303520
v -23.298695 -8.053315 -13.454290
v -26.903759 -8.053314 0.000004
v -23.298691 -8.053313 13.454297
v -13.449465 -8.053313 23.303524
v 0.004831 -8.053313 26.908592
v 13.459127 -8.053313 23.303524
v 26.913425 -8.053314 0.000000
v 23.308357 -8.053313 13.454296
vt 0.226369 0.103918
vt 0.295953 0.103918
vt 0.295953 0.184356
vt 0.226369 0.184356
vt 0.365521 0.103918
vt 0.365521 0.184356
vt 0.435078 0.103918
vt 0.435078 0.184356
vt 0.504630 0.103918
vt 0.504630 0.184356
vt 0.574181 0.103918
vt 0.574181 0.184356
vt 0.643737 0.103918
vt 0.643737 0.184356
vt 0.713306 0.103918
vt 0.713306 0.184356
vt 0.782890 0.103918
vt 0.782890 0.184356
vt 0.852494 0.103918
vt 0.852494 0.184356
vt 0.922119 0.103918
vt 0.922119 0.184356
vt 0.087139 0.103918
vt 0.156765 0.103918
vt 0.156765 0.184356
vt 0.087139 0.184356
vt 0.896158 0.412930
vt 0.872419 0.501525
vt 0.718989 0.412942
vt 0.807562 0.566382
vt 0.718979 0.412952
vt 0.718967 0.590121
vt 0.718963 0.412926
vt 0.630371 0.566382
vt 0.565514 0.501525
vt 0.541775 0.412930
vt 0.565514 0.324334
vt 0.630371 0.259477
vt 0.718967 0.235738
vt 0.807562 0.259477
vt 0.872419 0.324334
vt 0.445349 0.499160
vt 0.469088 0.410564
vt 0.291893 0.410560
vt 0.380492 0.564016
vt 0.291919 0.410576
vt 0.291897 0.587755
vt 0.291909 0.410586
vt 0.203301 0.564016
vt 0.138444 0.499159
vt 0.114705 0.410564
vt 0.138444 0.321968
vt 0.203301 0.257111
vt 0.291897 0.233372
vt 0.380492 0.257111
vt 0.445349 0.321968
vn 0.996033 0.000000 0.088961
vn 0.818110 0.000000 0.575060
vn 0.907071 0.000000 0.420972
vn 0.996033 0.000000 -0.088961
vn 0.420972 0.000000 0.907071
vn 0.575060 0.000000 0.818110
vn -0.088961 0.000000 0.996033
vn 0.088961 0.000000 0.996033
vn -0.575060 0.000000 0.818110
vn -0.420972 0.000000 0.907071
vn -0.907071 0.000000 0.420972
vn -0.818110 0.000000 0.575060
vn -0.996033 0.000000 -0.088961
vn -0.996033 0.000000 0.088961
vn -0.818110 0.000000 -0.575060
vn -0.907071 0.000000 -0.420972
vn -0.420972 0.000000 -0.907071
vn -0.575060 0.000000 -0.818110
vn 0.088961 0.000000 -0.996033
vn -0.088961 0.000000 -0.996033
vn 0.575060 0.000000 -0.818110
vn 0.420972 0.000000 -0.907071
vn 0.907071 0.000000 -0.420972
vn 0.818110 0.000000 -0.575060
vn 0.000000 1.000000 0.000000
vn 0.000000 -1.000000 0.000000
usemtl (null)
s 1
f 1/1/1 2/2/2 3/3/3
f 4/4/4 1/1/1 3/3/3
f 2/2/2 5/5/5 6/6/6
f 6/6/6 3/3/3 2/2/2
f 5/5/5 7/7/7 8/8/8
f 8/8/8 6/6/6 5/5/5
f 7/7/7 9/9/9 10/10/10
f 10/10/10 8/8/8 7/7/7
f 9/9/9 11/11/11 12/12/12
f 12/12/12 10/10/10 9/9/9
f 11/11/11 13/13/13 14/14/14
f 14/14/14 12/12/12 11/11/11
f 13/13/13 15/15/15 16/16/16
f 16/16/16 14/14/14 13/13/13
f 15/15/15 17/17/17 18/18/18
f 18/18/18 16/16/16 15/15/15
f 17/17/17 19/19/19 20/20/20
f 20/20/20 18/18/18 17/17/17
f 19/19/19 21/21/21 22/22/22
f 22/22/22 20/20/20 19/19/19
f 21/23/21 23/24/23 24/25/24
f 24/25/24 22/26/22 21/23/21
f 23/24/23 1/1/1 4/4/4
f 4/4/4 24/25/24 23/24/23
f 37/27/25 26/28/25 25/29/25
f 26/28/25 27/30/25 25/31/25
f 27/30/25 28/32/25 25/33/25
f 28/32/25 29/34/25 25/33/25
f 29/34/25 30/35/25 25/33/25
f 30/35/25 31/36/25 25/33/25
f 31/36/25 32/37/25 25/33/25
f 32/37/25 33/38/25 25/33/25
f 33/38/25 34/39/25 25/33/25
f 34/39/25 35/40/25 25/33/25
f 35/40/25 36/41/25 25/33/25
f 36/41/25 37/27/25 25/33/25
f 39/42/26 49/43/26 38/44/26
f 40/45/26 39/42/26 38/46/26
f 41/47/26 40/45/26 38/48/26
f 42/49/26 41/47/26 38/44/26
f 43/50/26 42/49/26 38/44/26
f 44/51/26 43/50/26 38/44/26
f 45/52/26 44/51/26 38/44/26
f 46/53/26 45/52/26 38/44/26
f 47/54/26 46/53/26 38/44/26
f 48/55/26 47/54/26 38/44/26
f 50/56/26 48/55/26 38/44/26
f 49/43/26 50/56/26 38/44/26
