# Max2Obj Version 4.0 Mar 10th, 2001
#
# object mid to come ...
#
v  -177.263000 -184.096222 -121.414192
v  171.827240 -184.096222 -121.414192
v  -177.263000 164.994019 -121.414177
v  171.827240 164.994019 -121.414177
# 4 vertices

vt  0.000000 0.000000 0.000000
vt  1.000000 0.000000 0.000000
vt  0.000000 1.000000 0.000000
vt  1.000000 1.000000 0.000000
# 4 texture vertices

vn  0.000000 -0.000000 0.560640
vn  0.000000 -0.000000 0.560640
vn  0.000000 -0.000000 0.560640
vn  0.000000 -0.000000 0.560640
# 4 vertex normals

g mid
s 1
f 1/1/1 2/2/2 4/4/4
f 4/4/4 3/3/3 1/1/1
# 2 faces

g
# object back to come ...
#
v  -163.540451 -170.373672 -8.637695
v  -150.128220 -170.373672 -8.637695
v  144.692535 -170.373672 -8.637695
v  158.104721 -170.373672 -8.637695
v  -163.540451 -156.197586 -8.637695
v  -217.221909 -222.943542 -287.711914
v  211.786148 -222.943542 -287.711914
v  158.104721 -156.197586 -8.637695
v  -163.540451 137.095398 -8.637695
v  -217.221909 203.841385 -287.711914
v  211.786148 203.841385 -287.711914
v  158.104721 137.095398 -8.637695
v  -163.540451 151.271500 -8.637695
v  -150.128220 151.271500 -8.637695
v  144.692535 151.271500 -8.637695
v  158.104721 151.271500 -8.637695
# 16 vertices

vt  0.000000 0.000000 0.000000
vt  0.016296 0.000000 0.000000
vt  0.984012 0.000000 0.000000
vt  1.000000 0.000000 0.000000
vt  0.000000 0.021619 0.000000
vt  0.016296 0.021619 0.000000
vt  0.984012 0.021619 0.000000
vt  1.000000 0.021619 0.000000
vt  0.000000 0.978547 0.000000
vt  0.016296 0.978547 0.000000
vt  0.984012 0.978547 0.000000
vt  1.000000 0.978547 0.000000
vt  0.000000 1.000000 0.000000
vt  0.016296 1.000000 0.000000
vt  0.984012 1.000000 0.000000
vt  1.000000 1.000000 0.000000
# 16 texture vertices

vn  3.943219 3.945095 -0.048153
vn  0.000000 5.581185 -0.033713
vn  -2.118086 5.012063 0.224948
vn  0.000000 -0.000000 1.000000
vn  5.581049 0.000000 -0.034425
vn  3.273660 3.272197 0.559465
vn  -3.273698 3.272259 0.559446
vn  -5.091288 1.988737 0.204861
vn  5.091286 -1.988741 0.204862
vn  3.273698 -3.272259 0.559446
vn  -3.273660 -3.272197 0.559464
vn  -5.581049 0.000000 -0.034425
vn  0.000000 -0.000000 1.000000
vn  2.118082 -5.012065 0.224947
vn  0.000000 -5.581185 -0.033713
vn  -3.943220 -3.945095 -0.048153
# 16 vertex normals

g back
s 1
f 5/5/5 6/6/6 10/10/10
f 10/10/10 9/9/9 5/5/5
f 6/6/6 7/7/7 11/11/11
f 11/11/11 10/10/10 6/6/6
f 7/7/7 8/8/8 12/12/12
f 12/12/12 11/11/11 7/7/7
f 9/9/9 10/10/10 14/14/14
f 14/14/14 13/13/13 9/9/9
f 10/10/10 11/11/11 15/15/15
f 15/15/15 14/14/14 10/10/10
f 11/11/11 12/12/12 16/16/16
f 16/16/16 15/15/15 11/11/11
f 13/13/13 14/14/14 18/18/18
f 18/18/18 17/17/17 13/13/13
f 14/14/14 15/15/15 19/19/19
f 19/19/19 18/18/18 14/14/14
f 15/15/15 16/16/16 20/20/20
f 20/20/20 19/19/19 15/15/15
# 18 faces

g
# object front to come ...
#
v  -160.198196 -167.031418 -0.000007
v  154.762436 -167.031418 -0.000007
v  -160.198196 147.929214 0.000006
v  154.762436 147.929214 0.000006
# 4 vertices

vt  0.000000 0.000000 0.000000
vt  1.000000 0.000000 0.000000
vt  0.000000 0.000000 0.000000
vt  1.000000 0.000000 0.000000
vt  0.000000 0.000000 0.000000
vt  1.000000 0.000000 0.000000
vt  0.000000 1.000000 0.000000
vt  1.000000 1.000000 0.000000
# 8 texture vertices

vn  0.000000 -0.000000 1.000000
vn  0.000000 -0.000000 1.000000
vn  0.000000 -0.000000 1.000000
vn  0.000000 -0.000000 1.000000
# 4 vertex normals

g front
s 1
f 23/27/23 21/25/21 24/28/24
f 22/26/22 24/28/24 21/25/21
# 2 faces

g
# object no_render to come ...
#
v  -199.754745 -206.587952 -2.265259
v  -183.322357 -206.587952 -2.265259
v  177.886673 -206.587952 -2.265381
v  194.319031 -206.587952 -2.265381
v  -199.754745 -189.219666 -2.265259
v  -259.830902 -265.331665 -321.561401
v  254.395157 -265.331665 -321.561401
v  194.319031 -189.219666 -2.265381
v  -199.754745 170.117523 -2.265259
v  -259.830902 246.229553 -321.561401
v  254.395157 246.229553 -321.561401
v  194.319031 170.117523 -2.265381
v  -199.754745 187.485825 -2.265259
v  -183.322357 187.485825 -2.265259
v  177.886673 187.485825 -2.265381
v  194.319031 187.485825 -2.265381
# 16 vertices

vt  0.000000 0.000000 0.000000
vt  0.016296 0.000000 0.000000
vt  0.984012 0.000000 0.000000
vt  1.000000 0.000000 0.000000
vt  0.000000 0.021619 0.000000
vt  0.016296 0.021619 0.000000
vt  0.984012 0.021619 0.000000
vt  1.000000 0.021619 0.000000
vt  0.000000 0.978547 0.000000
vt  0.016296 0.978547 0.000000
vt  0.984012 0.978547 0.000000
vt  1.000000 0.978547 0.000000
vt  0.000000 1.000000 0.000000
vt  0.016296 1.000000 0.000000
vt  0.984012 1.000000 0.000000
vt  1.000000 1.000000 0.000000
# 16 texture vertices

vn  4.832232 4.834399 -0.049537
vn  -0.000000 6.838667 -0.034652
vn  -2.595290 6.133447 0.260096
vn  0.000000 -0.000000 1.135450
vn  6.838521 0.000000 -0.035437
vn  4.005264 4.003571 0.637158
vn  -4.005337 4.003624 0.637136
vn  -6.231125 2.437199 0.237272
vn  6.231123 -2.437201 0.237273
vn  4.005338 -4.003623 0.637135
vn  -4.005264 -4.003571 0.637157
vn  -6.838521 0.000000 -0.035437
vn  0.000000 -0.000000 1.135450
vn  2.595291 -6.133446 0.260095
vn  -0.000000 -6.838667 -0.034652
vn  -4.832232 -4.834399 -0.049537
# 16 vertex normals

g no_render
s 1
f 25/29/25 26/30/26 30/34/30
f 30/34/30 29/33/29 25/29/25
f 26/30/26 27/31/27 31/35/31
f 31/35/31 30/34/30 26/30/26
f 27/31/27 28/32/28 32/36/32
f 32/36/32 31/35/31 27/31/27
f 29/33/29 30/34/30 34/38/34
f 34/38/34 33/37/33 29/33/29
f 30/34/30 31/35/31 35/39/35
f 35/39/35 34/38/34 30/34/30
f 31/35/31 32/36/32 36/40/36
f 36/40/36 35/39/35 31/35/31
f 33/37/33 34/38/34 38/42/38
f 38/42/38 37/41/37 33/37/33
f 34/38/34 35/39/35 39/43/39
f 39/43/39 38/42/38 34/38/34
f 35/39/35 36/40/36 40/44/40
f 40/44/40 39/43/39 35/39/35
# 18 faces

g
