# Max2Obj Version 4.0 Mar 10th, 2001
#
# object back to come ...
#
v  -163.540451 -170.373672 -8.637695
v  -150.128220 -170.373672 -8.637695
v  144.692535 -170.373672 -8.637695
v  158.104721 -170.373672 -8.637695
v  -163.540451 -156.197586 -8.637695
v  -825.800110 -828.367920 -1606.504883
v  820.364319 -828.367920 -1606.504883
v  158.104721 -156.197586 -8.637695
v  -163.540451 137.095398 -8.637695
v  -825.800110 809.265747 -1606.504883
v  820.364319 809.265747 -1606.504883
v  158.104721 137.095398 -8.637695
v  -163.540451 151.271500 -8.637695
v  -150.128220 151.271500 -8.637695
v  144.692535 151.271500 -8.637695
v  158.104721 151.271500 -8.637695
# 16 vertices

vt  0.000000 0.000000 0.000000
vt  0.016296 0.000000 0.000000
vt  0.984012 0.000000 0.000000
vt  1.000000 0.000000 0.000000
vt  0.000000 0.021619 0.000000
vt  0.016296 0.021619 0.000000
vt  0.984012 0.021619 0.000000
vt  1.000000 0.021619 0.000000
vt  0.000000 0.978547 0.000000
vt  0.016296 0.978547 0.000000
vt  0.984012 0.978547 0.000000
vt  1.000000 0.978547 0.000000
vt  0.000000 1.000000 0.000000
vt  0.016296 1.000000 0.000000
vt  0.984012 1.000000 0.000000
vt  1.000000 1.000000 0.000000
# 16 texture vertices

vn  3.926612 3.927993 -0.104055
vn  0.000000 5.569238 -0.073541
vn  -2.120615 5.071560 0.176123
vn  0.000000 -0.000000 1.000000
vn  5.569042 0.000000 -0.074015
vn  3.327512 3.326473 0.538625
vn  -3.327472 3.326523 0.538623
vn  -5.145144 1.987045 0.156542
vn  5.145140 -1.987055 0.156543
vn  3.327472 -3.326523 0.538623
vn  -3.327512 -3.326473 0.538625
vn  -5.569042 0.000000 -0.074015
vn  0.000000 -0.000000 1.000000
vn  2.120606 -5.071565 0.176122
vn  0.000000 -5.569238 -0.073541
vn  -3.926612 -3.927993 -0.104055
# 16 vertex normals

g back
s 1
f 1/1/1 2/2/2 6/6/6
f 6/6/6 5/5/5 1/1/1
f 2/2/2 3/3/3 7/7/7
f 7/7/7 6/6/6 2/2/2
f 3/3/3 4/4/4 8/8/8
f 8/8/8 7/7/7 3/3/3
f 5/5/5 6/6/6 10/10/10
f 10/10/10 9/9/9 5/5/5
f 6/6/6 7/7/7 11/11/11
f 11/11/11 10/10/10 6/6/6
f 7/7/7 8/8/8 12/12/12
f 12/12/12 11/11/11 7/7/7
f 9/9/9 10/10/10 14/14/14
f 14/14/14 13/13/13 9/9/9
f 10/10/10 11/11/11 15/15/15
f 15/15/15 14/14/14 10/10/10
f 11/11/11 12/12/12 16/16/16
f 16/16/16 15/15/15 11/11/11
# 18 faces

g
# object no_render to come ...
#
v  -199.754745 -206.587952 -2.265259
v  -183.322357 -206.587952 -2.265259
v  177.886673 -206.587952 -2.265381
v  194.319031 -206.587952 -2.265381
v  -199.754745 -189.219666 -2.265259
v  -903.552002 -905.716919 -1677.957520
v  898.116211 -905.716919 -1677.957520
v  194.319031 -189.219666 -2.265381
v  -199.754745 170.117523 -2.265259
v  -903.552002 886.614746 -1677.957520
v  898.116211 886.614746 -1677.957520
v  194.319031 170.117523 -2.265381
v  -199.754745 187.485825 -2.265259
v  -183.322357 187.485825 -2.265259
v  177.886673 187.485825 -2.265381
v  194.319031 187.485825 -2.265381
# 16 vertices

vt  0.000000 0.000000 0.000000
vt  0.016296 0.000000 0.000000
vt  0.984012 0.000000 0.000000
vt  1.000000 0.000000 0.000000
vt  0.000000 0.021619 0.000000
vt  0.016296 0.021619 0.000000
vt  0.984012 0.021619 0.000000
vt  1.000000 0.021619 0.000000
vt  0.000000 0.978547 0.000000
vt  0.016296 0.978547 0.000000
vt  0.984012 0.978547 0.000000
vt  1.000000 0.978547 0.000000
vt  0.000000 1.000000 0.000000
vt  0.016296 1.000000 0.000000
vt  0.984012 1.000000 0.000000
vt  1.000000 1.000000 0.000000
# 16 texture vertices

vn  4.814010 4.815470 -0.111020
vn  -0.000001 6.825512 -0.078431
vn  -2.599113 6.205354 0.206559
vn  0.000000 -0.000000 1.135450
vn  6.825295 0.000000 -0.078952
vn  4.069403 4.068328 0.614255
vn  -4.069444 4.068321 0.614249
vn  -6.296366 2.435930 0.184279
vn  6.296363 -2.435936 0.184279
vn  4.069444 -4.068322 0.614249
vn  -4.069403 -4.068328 0.614255
vn  -6.825295 0.000000 -0.078952
vn  0.000000 -0.000000 1.135450
vn  2.599109 -6.205355 0.206559
vn  -0.000001 -6.825513 -0.078431
vn  -4.814010 -4.815471 -0.111020
# 16 vertex normals

g no_render
s 1
f 17/17/17 18/18/18 22/22/22
f 22/22/22 21/21/21 17/17/17
f 18/18/18 19/19/19 23/23/23
f 23/23/23 22/22/22 18/18/18
f 19/19/19 20/20/20 24/24/24
f 24/24/24 23/23/23 19/19/19
f 21/21/21 22/22/22 26/26/26
f 26/26/26 25/25/25 21/21/21
f 22/22/22 23/23/23 27/27/27
f 27/27/27 26/26/26 22/22/22
f 23/23/23 24/24/24 28/28/28
f 28/28/28 27/27/27 23/23/23
f 25/25/25 26/26/26 30/30/30
f 30/30/30 29/29/29 25/25/25
f 26/26/26 27/27/27 31/31/31
f 31/31/31 30/30/30 26/26/26
f 27/27/27 28/28/28 32/32/32
f 32/32/32 31/31/31 27/27/27
# 18 faces

g
# object mid to come ...
#
v  -426.078369 -432.911621 -634.097046
v  420.642639 -432.911621 -634.097046
v  -426.078369 413.809387 -634.097046
v  420.642639 413.809387 -634.097046
# 4 vertices

vt  0.000000 0.000000 0.000000
vt  1.000000 0.000000 0.000000
vt  0.000000 1.000000 0.000000
vt  1.000000 1.000000 0.000000
# 4 texture vertices

vn  0.000000 -0.000000 1.000000
vn  0.000000 -0.000000 1.000000
vn  0.000000 -0.000000 1.000000
vn  0.000000 -0.000000 1.000000
# 4 vertex normals

g mid
s 1
f 33/33/33 34/34/34 36/36/36
f 36/36/36 35/35/35 33/33/33
# 2 faces

g
