# Blender v2.55 (sub 0) OBJ File: 'untitled.blend'
# www.blender.org
mtllib table.mtl
o Cube
v 0.896792 -0.151276 -0.896792
v 0.896792 -0.151276 0.896792
v -0.896792 -0.151276 0.896792
v -0.896792 -0.151276 -0.896793
v 0.896793 0.151276 -0.896792
v 0.896792 0.151276 0.896793
v -0.896793 0.151276 0.896792
v -0.896792 0.151276 -0.896792
vt 1.611676 1.611676
vt 1.611676 -0.611676
vt -0.611676 -0.611676
vt -0.611676 1.611677
vt 1.611677 1.611676
vt -0.611676 1.611676
vt 1.611676 -0.611677
vt 1.611676 0.312477
vt 1.611676 0.687523
vt -0.611677 0.687523
vt -0.611676 0.312477
vt -0.611676 0.687523
vt 1.611677 0.312477
vt 1.611677 0.687523
vn -0.000000 -1.000000 0.000000
vn 0.000000 1.000000 -0.000000
vn 1.000000 0.000000 0.000000
vn -0.000000 -0.000001 1.000000
vn -1.000000 -0.000001 -0.000000
vn 0.000000 0.000001 -1.000000
usemtl Material_table_c.tga
s off
f 1/1/1 2/2/1 3/3/1 4/4/1
f 5/5/2 8/6/2 7/3/2 6/7/2
f 1/8/3 5/9/3 6/10/3 2/11/3
f 2/8/4 6/9/4 7/12/4 3/11/4
f 3/11/5 7/12/5 8/9/5 4/13/5
f 5/14/6 1/8/6 4/11/6 8/12/6
